#Comment line ignore any data following # character 
#Hierarchical Translation and Rotation (.htr) file 
[Header]	
#Header keywords are followed by a single value 
FileType HTR		#Single word string
DataType HTRS		#Translation followed by rotation and scale data
FileVersion 1		#integer
NumSegments 64		#integer
NumFrames 3		#integer
DataFrameRate 30		#integer, data frame rate in this file
EulerRotationOrder ZYX
CalibrationUnits mm
RotationUnits Degrees
GlobalAxisofGravity Y
BoneLengthAxis Y
ScaleFactor 1.00
[SegmentNames&Hierarchy]
#CHILD	PARENT
Pinger_Root GLOBAL
Pelvis Pinger_Root
L_Hip Pelvis
R_Hip Pelvis
Rear_Leg01 Pelvis
Spine1 Pelvis
L_Leg01 L_Hip
L_Leg02 L_Leg01
L_Leg03 L_Leg02
L_Foot L_Leg03
L_Toe1_01 L_Foot
L_Toe2_01 L_Foot
L_Toe3_01 L_Foot
planeAlignerLeft L_Foot
L_Toe1_02 L_Toe1_01
L_Toe1_03 L_Toe1_02
L_Toe2_02 L_Toe2_01
L_Toe2_03 L_Toe2_02
L_Toe3_02 L_Toe3_01
L_Toe3_03 L_Toe3_02
planeLockWeightLeft planeAlignerLeft
R_Leg01 R_Hip
R_Leg02 R_Leg01
R_Leg03 R_Leg02
R_Foot R_Leg03
planeAlignerRight R_Foot
R_Toe1_01 R_Foot
R_Toe2_01 R_Foot
R_Toe3_01 R_Foot
planeLockWeightRight planeAlignerRight
R_Toe1_02 R_Toe1_01
R_Toe1_03 R_Toe1_02
R_Toe2_02 R_Toe2_01
R_Toe2_03 R_Toe2_02
R_Toe3_02 R_Toe3_01
R_Toe3_03 R_Toe3_02
Rear_Leg02 Rear_Leg01
Rear_Leg03 Rear_Leg02
Rear_Leg04 Rear_Leg03
Rear_Foot Rear_Leg04
planeAlignerCenter Rear_Foot
Rear_Toe1_01 Rear_Foot
Rear_Toe2_01 Rear_Foot
Rear_Toe3_01 Rear_Foot
planeLockWeightCenter planeAlignerCenter
Rear_Toe1_02 Rear_Toe1_01
Rear_Toe1_03 Rear_Toe1_02
Rear_Toe2_02 Rear_Toe2_01
Rear_Toe2_03 Rear_Toe2_02
Rear_Toe3_02 Rear_Toe3_01
Rear_Toe3_03 Rear_Toe3_02
Back_Bone Spine1
Head Spine1
Motor_Bone Back_Bone
Ping_Mechanism Back_Bone
BN_LookIK Head
bottomMouth Head
L_Mouth01 Head
L_mouthFront Head
mouthGun Head
R_Mouth01 Head
R_mouthFront Head
TopMouth Head
weapon_bone Head
[BasePosition]
#SegmentName Tx, Ty, Tz, Rx, Ry, Rz, BoneLength
Pinger_Root 0.000000 0.000000 0.000000 -90.000000 0.000000 0.000000 10.000000 
Pelvis 0.000000 0.000000 0.000000 0.000000 0.000000 0.000000 10.000000 
L_Hip 0.000000 0.000000 0.000000 0.000000 0.000000 0.000000 10.000000 
R_Hip 0.000000 0.000000 0.000000 0.000000 0.000000 0.000000 10.000000 
Rear_Leg01 0.000000 0.000000 0.000000 0.000000 0.000000 0.000000 10.000000 
Spine1 0.000000 0.000000 0.000000 0.000000 0.000000 0.000000 10.000000 
L_Leg01 0.000000 0.000000 0.000000 0.000000 0.000000 0.000000 10.000000 
L_Leg02 0.000000 0.000000 0.000000 0.000000 0.000000 0.000000 10.000000 
L_Leg03 0.000000 0.000000 0.000000 0.000000 0.000000 0.000000 10.000000 
L_Foot 0.000000 0.000000 0.000000 0.000000 0.000000 0.000000 10.000000 
L_Toe1_01 0.000000 0.000000 0.000000 0.000000 0.000000 0.000000 10.000000 
L_Toe2_01 0.000000 0.000000 0.000000 0.000000 0.000000 0.000000 10.000000 
L_Toe3_01 0.000000 0.000000 0.000000 0.000000 0.000000 0.000000 10.000000 
planeAlignerLeft 0.000000 0.000000 0.000000 0.000000 0.000000 0.000000 10.000000 
L_Toe1_02 0.000000 0.000000 0.000000 0.000000 0.000000 0.000000 10.000000 
L_Toe1_03 0.000000 0.000000 0.000000 0.000000 0.000000 0.000000 10.000000 
L_Toe2_02 0.000000 0.000000 0.000000 0.000000 0.000000 0.000000 10.000000 
L_Toe2_03 0.000000 0.000000 0.000000 0.000000 0.000000 0.000000 10.000000 
L_Toe3_02 0.000000 0.000000 0.000000 0.000000 0.000000 0.000000 10.000000 
L_Toe3_03 0.000000 0.000000 0.000000 0.000000 0.000000 0.000000 10.000000 
planeLockWeightLeft 0.000000 0.000000 0.000000 0.000000 0.000000 0.000000 10.000000 
R_Leg01 0.000000 0.000000 0.000000 0.000000 0.000000 0.000000 10.000000 
R_Leg02 0.000000 0.000000 0.000000 0.000000 0.000000 0.000000 10.000000 
R_Leg03 0.000000 0.000000 0.000000 0.000000 0.000000 0.000000 10.000000 
R_Foot 0.000000 0.000000 0.000000 0.000000 0.000000 0.000000 10.000000 
planeAlignerRight 0.000000 0.000000 0.000000 0.000000 0.000000 0.000000 10.000000 
R_Toe1_01 0.000000 0.000000 0.000000 0.000000 0.000000 0.000000 10.000000 
R_Toe2_01 0.000000 0.000000 0.000000 0.000000 0.000000 0.000000 10.000000 
R_Toe3_01 0.000000 0.000000 0.000000 0.000000 0.000000 0.000000 10.000000 
planeLockWeightRight 0.000000 0.000000 0.000000 0.000000 0.000000 0.000000 10.000000 
R_Toe1_02 0.000000 0.000000 0.000000 0.000000 0.000000 0.000000 10.000000 
R_Toe1_03 0.000000 0.000000 0.000000 0.000000 0.000000 0.000000 10.000000 
R_Toe2_02 0.000000 0.000000 0.000000 0.000000 0.000000 0.000000 10.000000 
R_Toe2_03 0.000000 0.000000 0.000000 0.000000 0.000000 0.000000 10.000000 
R_Toe3_02 0.000000 0.000000 0.000000 0.000000 0.000000 0.000000 10.000000 
R_Toe3_03 0.000000 0.000000 0.000000 0.000000 0.000000 0.000000 10.000000 
Rear_Leg02 0.000000 0.000000 0.000000 0.000000 0.000000 0.000000 10.000000 
Rear_Leg03 0.000000 0.000000 0.000000 0.000000 0.000000 0.000000 10.000000 
Rear_Leg04 0.000000 0.000000 0.000000 0.000000 0.000000 0.000000 10.000000 
Rear_Foot 0.000000 0.000000 0.000000 0.000000 0.000000 0.000000 10.000000 
planeAlignerCenter 0.000000 0.000000 0.000000 0.000000 0.000000 0.000000 10.000000 
Rear_Toe1_01 0.000000 0.000000 0.000000 0.000000 0.000000 0.000000 10.000000 
Rear_Toe2_01 0.000000 0.000000 0.000000 0.000000 0.000000 0.000000 10.000000 
Rear_Toe3_01 0.000000 0.000000 0.000000 0.000000 0.000000 0.000000 10.000000 
planeLockWeightCenter 0.000000 0.000000 0.000000 0.000000 0.000000 0.000000 10.000000 
Rear_Toe1_02 0.000000 0.000000 0.000000 0.000000 0.000000 0.000000 10.000000 
Rear_Toe1_03 0.000000 0.000000 0.000000 0.000000 0.000000 0.000000 10.000000 
Rear_Toe2_02 0.000000 0.000000 0.000000 0.000000 0.000000 0.000000 10.000000 
Rear_Toe2_03 0.000000 0.000000 0.000000 0.000000 0.000000 0.000000 10.000000 
Rear_Toe3_02 0.000000 0.000000 0.000000 0.000000 0.000000 0.000000 10.000000 
Rear_Toe3_03 0.000000 0.000000 0.000000 0.000000 0.000000 0.000000 10.000000 
Back_Bone 0.000000 0.000000 0.000000 0.000000 0.000000 0.000000 10.000000 
Head 0.000000 0.000000 0.000000 0.000000 0.000000 0.000000 10.000000 
Motor_Bone 0.000000 0.000000 0.000000 0.000000 0.000000 0.000000 10.000000 
Ping_Mechanism 0.000000 0.000000 0.000000 0.000000 0.000000 0.000000 10.000000 
BN_LookIK 0.000000 0.000000 0.000000 0.000000 0.000000 0.000000 10.000000 
bottomMouth 0.000000 0.000000 0.000000 0.000000 0.000000 0.000000 10.000000 
L_Mouth01 0.000000 0.000000 0.000000 0.000000 0.000000 0.000000 10.000000 
L_mouthFront 0.000000 0.000000 0.000000 0.000000 0.000000 0.000000 10.000000 
mouthGun 0.000000 0.000000 0.000000 0.000000 0.000000 0.000000 10.000000 
R_Mouth01 0.000000 0.000000 0.000000 0.000000 0.000000 0.000000 10.000000 
R_mouthFront 0.000000 0.000000 0.000000 0.000000 0.000000 0.000000 10.000000 
TopMouth 0.000000 0.000000 0.000000 0.000000 0.000000 0.000000 10.000000 
weapon_bone 0.000000 0.000000 0.000000 0.000000 0.000000 0.000000 10.000000 
#Beginning of Data. Separated by tabs
#Fr	Tx	Ty	Tz	Rx	Ry	Rz	SF
[Pinger_Root]
49 0.000000 0.000000 0.000000 -0.000075 -0.000000 -0.000020 0.000000
50 0.000000 0.000000 0.000000 -0.000075 -0.000000 -0.000020 0.000000
51 0.000000 0.000000 0.000000 -0.000075 -0.000000 -0.000020 0.000000
[Pelvis]
49 -981.078430 674.723145 3818.930908 -135.267487 -72.488670 144.826263 4000.249756
50 -911.531555 726.388306 3832.082275 -139.141205 -76.957199 146.652222 4005.419434
51 -840.705627 780.646484 3858.779541 -142.772415 -80.532509 148.618805 4025.713867
[L_Hip]
49 5.766392 125.831482 872.656799 -152.293610 -41.845699 57.260994 881.701050
50 5.766392 125.831482 872.656799 -152.293610 -41.845699 57.260994 881.701050
51 5.766392 125.831482 872.656799 -152.293610 -41.845699 57.260994 881.701050
[R_Hip]
49 5.765438 125.836372 -872.654907 38.087841 49.812698 125.703735 881.699829
50 5.765438 125.836372 -872.654907 38.087830 49.812672 125.703735 881.699829
51 5.765438 125.836372 -872.654907 38.087841 49.812687 125.703735 881.699829
[Rear_Leg01]
49 -192.298416 -925.602966 -0.001907 -176.515594 -8.287064 -129.744675 945.367432
50 -192.298416 -925.602966 -0.001907 -177.344879 -4.069602 -126.864471 945.367432
51 -192.298416 -925.602966 -0.001907 -177.871078 -0.846533 -124.658073 945.367432
[Spine1]
49 290.604584 5.007505 0.000477 4.415620 17.380859 36.237816 290.647736
50 290.604584 5.007505 0.000477 4.859229 14.061097 38.838436 290.647736
51 290.604584 5.007505 0.000477 4.904107 11.341277 40.474815 290.647736
[L_Leg01]
49 761.932007 -0.002384 -0.069261 41.547600 -21.604088 -55.672962 761.932068
50 761.932007 -0.002384 -0.069261 42.122940 -18.600365 -60.749355 761.932068
51 761.932007 -0.002384 -0.069261 42.442390 -15.939778 -65.174637 761.932068
[L_Leg02]
49 1441.140503 -0.000954 -0.000715 4.199678 0.594253 -109.566856 1441.140503
50 1441.140503 -0.000954 -0.000715 3.488841 0.305748 -107.764030 1441.140503
51 1441.140503 -0.000954 -0.000715 2.718878 0.087799 -105.012711 1441.140503
[L_Leg03]
49 1686.963989 -0.000715 -0.000954 -0.082241 0.042707 131.884933 1686.963989
50 1686.963989 -0.000715 -0.000954 -0.071605 0.035328 129.100800 1686.963989
51 1686.963989 -0.000715 -0.000954 -0.060616 0.028471 126.314980 1686.963989
[L_Foot]
49 3041.570068 -30.715107 11.297464 -15.152747 17.347391 35.668587 3041.746094
50 3041.570068 -30.715107 11.297464 -16.747093 17.467564 37.436779 3041.746094
51 3041.570068 -30.715107 11.297464 -18.304695 17.599997 38.744560 3041.746094
[L_Toe1_01]
49 -188.216690 -224.732346 -21.137953 77.444321 -15.333012 -178.910843 293.899567
50 -188.216690 -224.732346 -21.137953 77.237961 -15.059905 -178.382202 293.899567
51 -188.216690 -224.732346 -21.137953 77.034492 -14.784988 -177.855316 293.899567
[L_Toe2_01]
49 200.746536 -219.926590 148.838394 -73.433144 -21.854641 -62.639957 332.896027
50 200.746536 -219.926590 148.838394 -73.374565 -22.122335 -62.793945 332.896027
51 200.746536 -219.926590 148.838394 -73.315102 -22.389883 -62.948532 332.896027
[L_Toe3_01]
49 188.832520 -219.859131 -191.078659 -112.306252 36.337318 -57.304966 347.140900
50 188.832520 -219.859131 -191.078659 -112.356880 36.880062 -57.540634 347.140900
51 188.832520 -219.859131 -191.078659 -112.451881 37.211090 -57.852604 347.140900
[planeAlignerLeft]
49 -24.570633 -581.104004 143.657883 -10.770425 -84.794930 -89.952866 599.101929
50 -36.712109 -579.292603 143.823547 -10.767842 -84.790527 -89.955276 598.007446
51 -45.559525 -579.184875 143.836517 -10.765227 -84.786163 -89.957756 598.514648
[L_Toe1_02]
49 413.761139 0.000477 0.000000 0.001413 -22.280840 0.001413 413.761139
50 413.761139 0.000477 0.000000 0.001410 -22.684105 0.001410 413.761139
51 413.761139 0.000477 0.000000 0.001407 -23.087351 0.001407 413.761139
[L_Toe1_03]
49 464.317322 0.000358 -0.000089 0.015582 81.358757 0.015582 464.317322
50 464.317322 0.000358 -0.000089 0.012878 79.542007 0.012878 464.317322
51 464.317322 0.000358 -0.000089 0.011323 78.101723 0.011323 464.317322
[L_Toe2_02]
49 342.235809 -0.000477 0.000238 0.001188 -72.168381 0.001188 342.235809
50 342.235809 -0.000477 0.000238 0.001187 -72.874634 0.001187 342.235809
51 342.235809 -0.000477 0.000238 0.001186 -73.274742 0.001186 342.235809
[L_Toe2_03]
49 420.210846 -0.000715 0.000000 -0.000986 84.887947 0.001348 420.210846
50 420.210846 -0.000715 0.000000 -0.021474 86.660522 -0.017975 420.210846
51 420.210846 -0.000715 0.000000 -0.031156 87.760078 -0.027658 420.210846
[L_Toe3_02]
49 329.270111 0.000954 0.000000 0.004676 -84.142677 0.004676 329.270111
50 329.270111 0.000954 0.000000 0.004676 -84.230881 0.004676 329.270111
51 329.270111 0.000954 0.000000 0.004676 -84.319176 0.004676 329.270111
[L_Toe3_03]
49 439.137451 -0.001907 0.000954 179.992249 56.779770 179.999542 439.137451
50 439.137451 -0.001907 0.000954 179.992355 55.718342 179.999680 439.137451
51 439.137451 -0.001907 0.000954 179.992432 55.092701 179.999756 439.137451
[planeLockWeightLeft]
49 1000.000122 -0.000218 -0.000204 -0.011826 -0.004376 0.005620 1000.000122
50 1000.000122 -0.000233 -0.000199 -0.011826 -0.004376 0.005620 1000.000122
51 1000.000122 -0.000247 -0.000193 -0.011826 -0.004376 0.005620 1000.000122
[R_Leg01]
49 761.455627 -0.001907 -0.000358 133.536636 4.680233 25.712713 761.455688
50 761.455627 -0.001907 -0.000358 124.159935 6.666147 25.224609 761.455688
51 761.455627 -0.001907 -0.000358 122.391830 10.373080 27.128231 761.455688
[R_Leg02]
49 1441.140625 0.000000 -0.000238 -0.624869 0.103005 -92.489738 1441.140625
50 1441.140625 0.000000 -0.000238 -1.294251 -0.001608 -98.922348 1441.140625
51 1441.140625 0.000000 -0.000238 -1.592054 -0.100604 -100.077858 1441.140625
[R_Leg03]
49 1686.963989 0.000954 0.001431 0.040718 -0.018830 121.686966 1686.963989
50 1686.963989 0.000954 0.001431 0.062024 -0.031552 126.585403 1686.963989
51 1686.963989 0.000954 0.001431 0.067836 -0.035383 129.331772 1686.963989
[R_Foot]
49 3041.560059 -30.531288 -11.204481 22.376165 4.850583 29.908751 3041.734131
50 3041.560059 -30.531288 -11.204481 23.596603 2.329757 30.980570 3041.734131
51 3041.560059 -30.531288 -11.204481 22.308525 -1.840451 32.935837 3041.734131
[planeAlignerRight]
49 79.109703 -516.610352 -146.539627 -36.577137 -71.339012 -64.343925 542.787659
50 90.176178 -524.325012 -129.463211 -36.577137 -71.339012 -64.343925 547.548340
51 72.906212 -515.164001 -155.756790 -36.577137 -71.339012 -64.343925 543.110901
[R_Toe1_01]
49 -188.383347 -224.864899 21.052242 84.926750 15.418625 -158.231949 294.101532
50 -188.383347 -224.864899 21.052242 89.632088 15.176723 -153.397369 294.101532
51 -188.383347 -224.864899 21.052242 87.468445 11.855553 -159.579880 294.101532
[R_Toe2_01]
49 200.637817 -220.002121 -148.787384 -91.267258 17.219744 -51.247108 332.857574
50 200.637817 -220.002121 -148.787384 -90.738037 14.823823 -52.968937 332.857574
51 200.637817 -220.002121 -148.787384 -90.902908 17.445311 -52.490398 332.857574
[R_Toe3_01]
49 188.606735 -220.092957 191.126343 -39.614777 0.500355 -67.539795 347.192566
50 188.606735 -220.092957 191.126343 -36.393154 2.354498 -67.288353 347.192566
51 188.606735 -220.092957 191.126343 -40.502090 1.165012 -66.769402 347.192566
[planeLockWeightRight]
49 999.999390 0.000305 -0.000510 -0.011823 -0.004379 -0.000027 999.999390
50 999.999390 0.000305 -0.000517 -0.011823 -0.004379 -0.000027 999.999390
51 999.999390 0.000305 -0.000524 -0.011823 -0.004379 -0.000027 999.999390
[R_Toe1_02]
49 413.762085 0.000477 -0.000119 0.001423 -21.104572 0.001423 413.762085
50 413.762085 0.000477 -0.000119 0.001420 -21.484400 0.001420 413.762085
51 413.762085 0.000477 -0.000119 0.001432 -20.145744 0.001432 413.762085
[R_Toe1_03]
49 464.317810 0.000000 0.001088 -0.020193 86.428284 -0.016694 464.317810
50 464.317810 0.000000 0.001088 -0.014837 84.965767 -0.011337 464.317810
51 464.317810 0.000000 0.001088 0.000000 89.654510 0.003493 464.317810
[R_Toe2_02]
49 342.234741 -0.000954 0.000238 -0.002340 -76.300247 -0.002340 342.234741
50 342.234741 -0.000954 0.000238 0.001188 -71.991982 0.001188 342.234741
51 342.234741 -0.000954 0.000238 0.001193 -69.318581 0.001193 342.234741
[R_Toe2_03]
49 420.210846 0.000715 -0.000268 -179.989639 82.343857 -179.993149 420.210846
50 420.210846 0.000715 -0.000268 0.024070 84.410683 0.024070 420.210846
51 420.210846 0.000715 -0.000268 0.011293 78.069984 0.011293 420.210846
[R_Toe3_02]
49 329.270355 -0.000477 -0.000954 0.001180 -77.957420 0.001180 329.270355
50 329.270355 -0.000477 -0.000954 0.001181 -77.379631 0.001181 329.270355
51 329.270355 -0.000477 -0.000954 0.001181 -77.221313 0.001181 329.270355
[R_Toe3_03]
49 439.137939 0.000238 0.001431 -179.977280 87.308189 -179.973785 439.137939
50 439.137939 0.000238 0.001431 -179.935776 89.001427 -179.932281 439.137939
51 439.137939 0.000238 0.001431 0.000000 89.487183 0.003502 439.137939
[Rear_Leg02]
49 1162.777710 -0.029802 0.005960 4.422081 -6.432515 -104.167923 1162.777710
50 1162.777710 -0.029802 0.005960 4.183385 -6.592686 -102.151100 1162.777710
51 1162.777710 -0.029802 0.005960 3.843713 -6.799854 -99.294586 1162.777710
[Rear_Leg03]
49 607.192505 -0.013351 -0.073195 0.010296 -0.005490 72.491966 607.192505
50 607.192505 -0.013351 -0.073195 0.010325 -0.005436 71.886040 607.192505
51 607.192505 -0.013351 -0.073195 0.010372 -0.005346 70.890427 607.192505
[Rear_Leg04]
49 995.874512 -0.020504 -0.011921 -0.041578 -0.015501 76.468086 995.874573
50 995.874512 -0.020504 -0.011921 -0.041363 -0.016066 74.908623 995.874573
51 995.874512 -0.020504 -0.011921 -0.041050 -0.016849 72.731369 995.874573
[Rear_Foot]
49 3096.176270 -0.067472 -0.041425 -40.597530 78.512314 133.760025 3096.176270
50 3096.176270 -0.067472 -0.041425 -45.971382 79.943878 133.327515 3096.176270
51 3096.176270 -0.067472 -0.041425 -51.712452 81.063103 131.267059 3096.176270
[planeAlignerCenter]
49 4.245719 -23.332472 -736.624390 12.240773 -0.001473 179.998184 737.006042
50 3.051871 -44.114895 -717.159607 12.240772 -0.001473 179.998184 718.521667
51 1.974908 -59.371964 -703.711914 12.240772 -0.001473 179.998184 706.214844
[Rear_Toe1_01]
49 0.653352 83.966492 -371.173737 1.185905 35.255814 91.576141 380.553192
50 0.653352 83.966492 -371.173737 0.527970 32.241852 90.747620 380.553192
51 0.653352 83.966492 -371.173737 0.416668 33.352547 90.590538 380.553192
[Rear_Toe2_01]
49 178.200760 -294.826019 -362.060547 -8.903057 26.134842 -75.234085 499.765686
50 178.200760 -294.826019 -362.060547 -8.719915 25.066849 -73.257790 499.765686
51 178.200760 -294.826019 -362.060547 -8.558328 25.863295 -71.120857 499.765686
[Rear_Toe3_01]
49 -153.359680 -308.780914 -362.060852 4.064602 27.054050 -108.696983 499.952881
50 -153.359680 -308.780914 -362.060852 3.987665 25.672880 -109.490341 499.952881
51 -153.359680 -308.780914 -362.060852 3.923926 25.973997 -110.268242 499.952881
[planeLockWeightCenter]
49 0.000161 0.000305 0.000004 -0.011814 -0.004373 -0.000015 0.000345
50 0.000153 0.000305 0.000000 -0.011814 -0.004373 -0.000015 0.000341
51 499.990723 0.000305 -0.000119 -0.011814 -0.004373 -0.000015 499.990723
[Rear_Toe1_02]
49 379.707825 0.194073 0.000477 -0.006687 -31.003838 -0.006687 379.707855
50 379.707825 0.194073 0.000477 -0.002651 -32.433140 -0.002651 379.707855
51 379.707825 0.194073 0.000477 -0.002640 -33.304581 -0.002640 379.707855
[Rear_Toe1_03]
49 500.129700 0.165701 0.000119 -179.993362 76.467957 -179.996872 500.129761
50 500.129700 0.165701 0.000119 -179.977188 86.871254 -179.980698 500.129761
51 500.129700 0.165701 0.000119 0.019986 83.267395 0.019986 500.129761
[Rear_Toe2_02]
49 340.494507 0.000238 -0.000954 0.001192 -69.642578 0.001192 340.494507
50 340.494507 0.000238 -0.000954 0.001196 -68.012924 0.001196 340.494507
51 340.494507 0.000238 -0.000954 0.001198 -66.930954 0.001198 340.494507
[Rear_Toe2_03]
49 433.103577 0.000000 0.000238 0.006562 69.394791 0.006562 433.103546
50 433.103577 0.000000 0.000238 0.005902 67.059074 0.005902 433.103546
51 433.103577 0.000000 0.000238 0.005500 65.358681 0.005500 433.103546
[Rear_Toe3_02]
49 340.494141 -0.000358 -0.000477 0.001188 -72.040878 0.001188 340.494171
50 340.494141 -0.000358 -0.000477 0.003822 -69.140839 -0.002620 340.494171
51 340.494141 -0.000358 -0.000477 0.005673 -66.238976 -0.005657 340.494171
[Rear_Toe3_03]
49 433.103577 0.001431 -0.000238 0.008063 73.260460 0.008063 433.103546
50 433.103577 0.001431 -0.000238 0.006352 68.704491 0.006352 433.103546
51 433.103577 0.001431 -0.000238 0.002258 64.576195 0.000465 433.103546
[Back_Bone]
49 1312.175781 -701.934692 0.000954 2.790756 -1.457651 -85.682373 1488.125488
50 1312.175781 -701.934692 0.000954 2.790756 -1.457651 -85.682373 1488.125488
51 1312.175781 -701.934692 0.000954 2.790756 -1.457651 -85.682373 1488.125488
[Head]
49 1406.159424 809.709290 0.001431 -1.623609 2.697531 7.613079 1622.625488
50 1406.159424 809.709290 0.001431 -1.623609 2.697531 7.613079 1622.625488
51 1406.159424 809.709290 0.001431 -1.623609 2.697531 7.613079 1622.625488
[Motor_Bone]
49 1158.364380 -417.834747 0.000477 3.394448 -1.301977 -115.970810 1231.419434
50 1158.364380 -417.834747 0.000477 3.394448 -1.301977 -115.970810 1231.419434
51 1158.364380 -417.834747 0.000477 3.394448 -1.301977 -115.970810 1231.419434
[Ping_Mechanism]
49 1259.536011 -465.612610 -70.865471 0.000103 -0.000053 82.120995 1344.711182
50 1246.182251 -457.553864 -53.676243 0.000103 -0.000053 82.120995 1328.610840
51 1236.389648 -450.452728 -39.996372 0.000103 -0.000053 82.120995 1316.497925
[BN_LookIK]
49 193.241119 1380.371704 -0.002861 0.000000 89.965736 -31.038179 1393.832153
50 193.241119 1380.371704 -0.002861 0.000000 89.965736 -31.038179 1393.832153
51 193.241119 1380.371704 -0.002861 0.000000 89.965736 -31.038179 1393.832153
[bottomMouth]
49 -435.092926 615.759399 -0.000954 -0.000022 0.000016 73.527184 753.966492
50 -435.092926 615.759399 -0.000954 -0.000022 0.000016 73.527184 753.966492
51 -435.092926 615.759399 -0.000954 -0.000022 0.000016 73.527184 753.966492
[L_Mouth01]
49 554.440979 7.658243 838.222046 150.204178 23.759130 109.605339 1005.027161
50 554.440979 7.658243 838.222046 150.204178 23.759130 109.605339 1005.027161
51 554.440979 7.658243 838.222046 150.204178 23.759130 109.605339 1005.027161
[L_mouthFront]
49 551.629089 934.514771 339.150421 0.000081 2.804060 79.119301 1136.941284
50 551.629089 934.514771 339.150421 0.000081 2.804060 79.119301 1136.941284
51 551.629089 934.514771 339.150421 0.000081 2.804060 79.119301 1136.941284
[mouthGun]
49 55.332661 1627.420898 0.000000 0.000023 0.000009 -11.038128 1628.361328
50 55.332661 1627.420898 0.000000 0.000023 0.000009 -11.038128 1628.361328
51 55.332661 1627.420898 0.000000 0.000023 0.000009 -11.038128 1628.361328
[R_Mouth01]
49 554.442383 7.659197 -838.223938 29.795891 -23.759109 109.605331 1005.029541
50 554.442383 7.659197 -838.223938 29.795891 -23.759109 109.605331 1005.029541
51 554.442383 7.659197 -838.223938 29.795891 -23.759109 109.605331 1005.029541
[R_mouthFront]
49 551.629089 934.514282 -339.151367 0.000029 -2.803930 79.119133 1136.941162
50 551.629089 934.514282 -339.151367 0.000029 -2.803930 79.119133 1136.941162
51 551.629089 934.514282 -339.151367 0.000029 -2.803930 79.119133 1136.941162
[TopMouth]
49 461.269867 -56.106091 -0.008583 -0.000059 -0.000268 92.025169 464.669525
50 461.269867 -56.106091 -0.008583 -0.000059 -0.000268 92.025169 464.669525
51 461.269867 -56.106091 -0.008583 -0.000059 -0.000268 92.025169 464.669525
[weapon_bone]
49 -987.239868 1448.372803 0.001431 0.000000 89.965736 -31.038221 1752.833740
50 -987.239868 1448.372803 0.001431 0.000000 89.965736 -31.038221 1752.833740
51 -987.239868 1448.372803 0.001431 0.000000 89.965736 -31.038221 1752.833740
